<svg width="36" height="36" viewBox="0 0 36 36" fill="none" xmlns="http://www.w3.org/2000/svg">
<path d="M17.685 21.315L12.78 26.22C12.24 25.74 11.715 25.245 11.205 24.735C9.66 23.175 8.265 21.54 7.02 19.83C5.79 18.12 4.8 16.41 4.08 14.715C3.36 13.005 3 11.37 3 9.81C3 8.79 3.18 7.815 3.54 6.915C3.9 6 4.47 5.16 5.265 4.41C6.225 3.465 7.275 3 8.385 3C8.805 3 9.225 3.09 9.6 3.27C9.99 3.45 10.335 3.72 10.605 4.11L14.085 9.015C14.355 9.39 14.55 9.735 14.685 10.065C14.82 10.38 14.895 10.695 14.895 10.98C14.895 11.34 14.79 11.7 14.58 12.045C14.385 12.39 14.1 12.75 13.74 13.11L12.6 14.295C12.435 14.46 12.36 14.655 12.36 14.895C12.36 15.015 12.375 15.12 12.405 15.24C12.45 15.36 12.495 15.45 12.525 15.54C12.795 16.035 13.26 16.68 13.92 17.46C14.595 18.24 15.315 19.035 16.095 19.83C16.635 20.355 17.16 20.865 17.685 21.315Z" fill="#1A3934"/>
<path d="M32.9554 27.4951C32.9554 27.9151 32.8804 28.3501 32.7304 28.7701C32.6854 28.8901 32.6404 29.0101 32.5804 29.1301C32.3254 29.6701 31.9954 30.1801 31.5604 30.6601C30.8254 31.4701 30.0154 32.0551 29.1004 32.4301C29.0854 32.4301 29.0704 32.4451 29.0554 32.4451C28.1704 32.8051 27.2104 33.0001 26.1754 33.0001C24.6454 33.0001 23.0104 32.6401 21.2854 31.9051C19.5604 31.1701 17.8354 30.1801 16.1254 28.9351C15.5404 28.5001 14.9554 28.0651 14.4004 27.6001L19.3054 22.6951C19.7254 23.0101 20.1004 23.2501 20.4154 23.4151C20.4904 23.4451 20.5804 23.4901 20.6854 23.5351C20.8054 23.5801 20.9254 23.5951 21.0604 23.5951C21.3154 23.5951 21.5104 23.5051 21.6754 23.3401L22.8154 22.2151C23.1904 21.8401 23.5504 21.5551 23.8954 21.3751C24.2404 21.1651 24.5854 21.0601 24.9604 21.0601C25.2454 21.0601 25.5454 21.1201 25.8754 21.2551C26.2054 21.3901 26.5504 21.5851 26.9254 21.8401L31.8904 25.3651C32.2804 25.6351 32.5504 25.9501 32.7154 26.3251C32.8654 26.7001 32.9554 27.0751 32.9554 27.4951Z" fill="#1A3934"/>
</svg>
