<svg width="60" height="60" viewBox="0 0 60 60" fill="none" xmlns="http://www.w3.org/2000/svg">
<g clip-path="url(#clip0_156_394)">
<path d="M54 30C54 16.7452 43.2548 6 30 6C16.7452 6 6 16.7452 6 30C6 43.2548 16.7452 54 30 54C43.2548 54 54 43.2548 54 30Z" fill="#1A3934"/>
<path d="M30 0C13.44 0 0 13.44 0 30C0 46.56 13.44 60 30 60C46.56 60 60 46.56 60 30C60 13.44 46.56 0 30 0ZM45.75 32.43C45.75 32.94 45.72 33.42 45.66 33.9C45.21 39.21 42.06 41.85 36.3 41.85H35.52C35.04 41.85 34.56 42.09 34.26 42.48L31.89 45.63C30.84 47.04 29.16 47.04 28.11 45.63L25.74 42.48C25.47 42.15 24.9 41.85 24.48 41.85H23.7C17.43 41.85 14.25 40.29 14.25 32.4V24.51C14.25 18.75 16.92 15.6 22.2 15.15C22.68 15.12 23.19 15.12 23.7 15.12H36.3C42.57 15.12 45.75 18.27 45.75 24.57V32.43Z" fill="#E8EBEB"/>
</g>
<defs>
<clipPath id="clip0_156_394">
<rect width="60" height="60" fill="white"/>
</clipPath>
</defs>
</svg>
