<svg width="192" height="45" viewBox="0 0 192 45" fill="none" xmlns="http://www.w3.org/2000/svg">
<g clip-path="url(#clip0_29_433)">
<mask id="mask0_29_433" style="mask-type:luminance" maskUnits="userSpaceOnUse" x="0" y="0" width="192" height="45">
<path d="M191.538 0H0V45H191.538V0Z" fill="white"/>
</mask>
<g mask="url(#mask0_29_433)">
<path d="M43.3647 45H2.27086C1.00442 45 0 43.9902 0 42.7171V2.32683C0 1.00976 1.00442 0 2.27086 0H43.3647C44.6312 0 45.6356 1.00976 45.6356 2.28293V42.6732C45.6792 43.9463 44.6312 45 43.3647 45Z" fill="#193732"/>
<path d="M37.8617 33.4541C35.8528 33.4541 34.1934 35.1224 34.1934 37.1419C34.1934 39.1614 35.8528 40.8297 37.8617 40.8297C39.8705 40.8297 41.53 39.1614 41.53 37.1419C41.53 35.0785 39.8705 33.4541 37.8617 33.4541ZM37.8617 39.2053C36.7262 39.2053 35.8092 38.2834 35.8092 37.1419C35.8092 36.0004 36.7262 35.0785 37.8617 35.0785C38.9971 35.0785 39.9142 36.0004 39.9142 37.1419C39.9142 38.2834 38.9971 39.2053 37.8617 39.2053Z" fill="#F6ECEE"/>
<path d="M7.81675 33.4541C5.80791 33.4541 4.14844 35.1224 4.14844 37.1419C4.14844 39.1614 5.80791 40.8297 7.81675 40.8297C9.82559 40.8297 11.4851 39.1614 11.4851 37.1419C11.4851 35.0785 9.82559 33.4541 7.81675 33.4541ZM7.81675 39.2053C6.68132 39.2053 5.76424 38.2834 5.76424 37.1419C5.76424 36.0004 6.68132 35.0785 7.81675 35.0785C8.95218 35.0785 9.86926 36.0004 9.86926 37.1419C9.86926 38.2834 8.95218 39.2053 7.81675 39.2053Z" fill="#F6ECEE"/>
<path d="M17.818 22.5665C18.8661 22.5665 19.7395 21.6885 19.7395 20.6348C19.7395 19.5812 18.8661 18.7031 17.818 18.7031C16.7699 18.7031 15.8965 19.5812 15.8965 20.6348C15.8965 21.6885 16.7699 22.5665 17.818 22.5665Z" fill="#F6ECEE"/>
<path d="M27.9059 22.5665C28.954 22.5665 29.8274 21.6885 29.8274 20.6348C29.8274 19.5812 28.954 18.7031 27.9059 18.7031C26.8578 18.7031 25.9844 19.5812 25.9844 20.6348C25.9844 21.6885 26.8578 22.5665 27.9059 22.5665Z" fill="#F6ECEE"/>
<path d="M7.33651 32.0931V30.2492L10.6555 29.1077C13.5814 28.054 16.7256 27.8784 19.7389 28.5809L21.9661 29.1077V40.8296H23.5819V29.0638L25.8091 28.537C28.8224 27.8345 32.185 28.0101 35.1109 29.0638L38.2988 30.2053V32.0492C38.9539 32.0492 39.3033 32.2248 39.8273 32.5321V29.2833L37.0761 28.0979C33.0147 26.3418 28.4293 26.0345 24.1496 27.2638L22.7958 27.6589L21.3984 27.2638C17.1187 26.0345 12.577 26.3418 8.47194 28.0979L5.7207 29.2833V32.4443C6.20108 32.2248 6.76879 32.0492 7.33651 32.0931C7.38018 32.0492 7.29284 32.0931 7.33651 32.0931Z" fill="#F6ECEE"/>
<path d="M12.4458 25.244C11.1357 23.2684 10.3496 20.8977 10.3496 18.3074C10.3496 11.4148 15.9394 5.79525 22.7957 5.79525C29.652 5.79525 35.2854 11.4148 35.2854 18.3513C35.2854 20.9416 34.4994 23.3123 33.1893 25.2879C33.8006 25.4196 34.3684 25.5513 34.9361 25.727C36.2462 23.5757 36.9886 21.0294 36.9886 18.3513C36.9886 10.4928 30.6564 4.12695 22.8394 4.12695C15.0224 4.12695 8.64648 10.4928 8.64648 18.3513C8.64648 21.0294 9.38889 23.5757 10.699 25.727C11.2667 25.5074 11.8781 25.3757 12.4458 25.244Z" fill="#F6ECEE"/>
<path d="M65.6667 18.4829C64.4003 18.4829 63.2212 18.2634 62.2167 17.8683C61.1687 17.4732 60.2953 16.8146 59.5965 15.9805C58.8978 15.1463 58.4611 14.1366 58.3301 12.9512L62.9591 11.8537C63.0028 12.8195 63.3085 13.5219 63.8326 14.0049C64.3566 14.4878 65.0117 14.7512 65.8414 14.7512C66.4091 14.7512 66.8895 14.6195 67.1952 14.3561C67.5445 14.0927 67.6756 13.6976 67.6756 13.1707C67.6756 12.7756 67.5009 12.4244 67.1515 12.0732C66.8021 11.7659 66.4528 11.5024 66.1471 11.3707C65.7977 11.239 65.23 11.0195 64.4439 10.7122C64.4003 10.7122 64.3566 10.6683 64.3129 10.6683C64.2693 10.6683 64.2693 10.6244 64.2256 10.6244C64.1819 10.6244 64.1382 10.5805 64.0946 10.5805C63.6579 10.4488 63.3085 10.3171 63.0465 10.1854C62.7845 10.0976 62.4351 9.92195 62.0421 9.74634C61.649 9.57073 61.2997 9.39512 61.0376 9.21951C60.7756 9.0439 60.5136 8.82439 60.2079 8.56097C59.9022 8.29756 59.6839 7.99024 59.5092 7.72683C59.3345 7.41951 59.2035 7.06829 59.0725 6.67317C58.9415 6.27805 58.8978 5.83902 58.8978 5.4C58.8978 3.73171 59.4655 2.41463 60.6446 1.44878C61.8674 0.482927 63.3959 0 65.2737 0C66.0597 0 66.8458 0.0878049 67.5882 0.263415C68.3306 0.439024 69.0293 0.702439 69.6844 1.09756C70.3394 1.44878 70.9072 1.97561 71.3875 2.63415C71.8679 3.29268 72.1736 4.08293 72.3483 4.96097L68.0686 6.05854C67.8502 4.52195 67.0205 3.73171 65.623 3.73171C64.968 3.73171 64.4876 3.86341 64.0946 4.12683C63.7015 4.39024 63.5269 4.78536 63.5269 5.26829C63.5269 5.4439 63.5705 5.61951 63.7015 5.75122C63.7889 5.92683 63.9199 6.01463 64.0946 6.14634C64.2256 6.27805 64.4439 6.36585 64.7496 6.49756C65.0117 6.62927 65.2737 6.71707 65.492 6.80488C65.7104 6.89268 66.0161 6.98049 66.4091 7.11219C66.6275 7.2 66.8021 7.2439 66.9332 7.2878C67.2825 7.41951 67.5445 7.50731 67.8066 7.59512C68.0686 7.68292 68.3306 7.81463 68.6363 7.94634C68.9857 8.07805 69.2477 8.20975 69.466 8.34146C69.6844 8.47317 69.9464 8.60488 70.2521 8.82439C70.5141 9 70.7761 9.17561 70.9945 9.39512C71.2129 9.57073 71.3875 9.83414 71.6059 10.0537C71.8242 10.3171 71.9552 10.5805 72.0863 10.8439C72.2173 11.1073 72.3046 11.4146 72.392 11.7659C72.4793 12.1171 72.523 12.4683 72.523 12.8634C72.523 13.8293 72.3483 14.6634 71.9553 15.4098C71.6059 16.1561 71.0818 16.7268 70.4705 17.1658C69.8591 17.6049 69.1167 17.9122 68.3306 18.1317C67.4135 18.3512 66.5401 18.4829 65.6667 18.4829Z" fill="#193732"/>
<path d="M87.5893 17.3415C86.2355 18.0878 84.7071 18.4829 82.9602 18.4829C81.2134 18.4829 79.685 18.0878 78.3312 17.3415C76.9774 16.5951 75.9293 15.4976 75.1432 14.0927C74.3572 12.6878 74.0078 11.0634 74.0078 9.26341C74.0078 7.41951 74.4008 5.79512 75.1432 4.39024C75.9293 2.98537 76.9774 1.8878 78.3312 1.14146C79.685 0.395122 81.2134 0 82.9602 0C84.7071 0 86.2355 0.395122 87.5893 1.14146C88.9431 1.8878 90.0349 2.98537 90.7773 4.39024C91.5633 5.79512 91.9127 7.41951 91.9127 9.26341C91.9127 11.0634 91.5196 12.6878 90.7773 14.0927C89.9912 15.4537 88.9431 16.5512 87.5893 17.3415ZM82.9166 14.2244C84.2704 14.2244 85.3621 13.7854 86.1919 12.8634C87.0653 11.9415 87.4583 10.7561 87.4583 9.21951C87.4583 7.68292 87.0216 6.49756 86.1919 5.57561C85.3184 4.65366 84.2267 4.21463 82.9166 4.21463C81.6065 4.21463 80.5147 4.65366 79.6413 5.57561C78.8116 6.49756 78.3749 7.68292 78.3749 9.21951C78.3749 10.7122 78.8116 11.9415 79.6413 12.8634C80.5147 13.7854 81.6065 14.2244 82.9166 14.2244Z" fill="#193732"/>
<path d="M105.364 4.30269H99.1191V7.24416H104.491V11.2393H99.1191V18.2198H94.6211V0.263672H105.364V4.30269Z" fill="#193732"/>
<path d="M118.684 0.263672V4.30269H114.797V18.2198H110.342V4.30269H106.412V0.263672H118.684Z" fill="#193732"/>
<path d="M123.574 18.2198L119.338 0.263672H123.967L126.893 13.0832L130.43 0.263672H134.142L137.679 13.0832L140.605 0.263672H145.278L141.042 18.2198H135.103L132.264 8.86855L129.469 18.2198H123.574Z" fill="#193732"/>
<path d="M158.552 18.2198L157.417 14.8832H150.517L149.425 18.2198H144.84L151.216 0.263672H156.718L163.094 18.2198H158.552ZM151.783 11.0637H156.15L153.967 4.56611L151.783 11.0637Z" fill="#193732"/>
<path d="M179.429 18.2198H174.102L169.604 10.5368V18.2198H165.105V0.263672H171.7C172.704 0.263672 173.578 0.395379 174.32 0.702696C175.062 0.966111 175.674 1.40513 176.11 1.88806C176.547 2.41489 176.896 2.98562 177.115 3.64416C177.333 4.30269 177.464 5.00513 177.464 5.79538C177.464 7.02464 177.159 7.9905 176.503 8.78074C175.892 9.52708 175.019 10.0539 173.971 10.2734L179.429 18.2198ZM173.272 5.83928C173.272 4.65391 172.529 4.03928 171.001 4.03928H169.604V7.63928H171.001C172.529 7.68318 173.272 7.06855 173.272 5.83928Z" fill="#193732"/>
<path d="M191.831 4.30269H185.804V7.24416H191.175V11.2393H185.804V14.1368H191.831V18.2198H181.35V0.263672H191.831V4.30269Z" fill="#193732"/>
<path d="M69.4224 44.9992C67.2825 44.9992 65.361 44.5163 63.7015 43.5943C62.0421 42.6724 60.732 41.3114 59.7712 39.5992C58.8105 37.8431 58.3301 35.8675 58.3301 33.5846C58.3301 31.3016 58.8105 29.326 59.7712 27.5699C60.732 25.8138 62.0421 24.4968 63.7015 23.5748C65.361 22.6528 67.2825 22.1699 69.4224 22.1699C71.9552 22.1699 74.1824 22.8285 76.0603 24.1455C77.9381 25.4626 79.2045 27.2187 79.9469 29.5016L74.7502 31.3894C74.4008 30.1602 73.7457 29.1943 72.785 28.4919C71.8242 27.7894 70.6888 27.4382 69.4224 27.4382C67.7629 27.4382 66.4528 28.0089 65.4047 29.1504C64.3566 30.2919 63.8326 31.7846 63.8326 33.6724C63.8326 35.5602 64.3566 37.0529 65.4047 38.1504C66.4528 39.248 67.8066 39.8187 69.4224 39.8187C70.6888 39.8187 71.8242 39.4675 72.785 38.765C73.7457 38.0626 74.4008 37.0968 74.7502 35.8675L79.9469 37.7553C79.2482 39.9943 77.9381 41.7943 76.0603 43.1114C74.1824 44.3407 71.9552 44.9992 69.4224 44.9992Z" fill="#193732"/>
<path d="M97.5887 44.6922L96.1912 40.5653H87.6318L86.278 44.6922H80.6445L88.5052 22.4775H95.3178L103.178 44.6922H97.5887ZM89.2476 35.8239H94.6191L91.9115 27.7897L89.2476 35.8239Z" fill="#193732"/>
<path d="M131.435 44.6922H125.888L124.491 29.019L119.949 44.6922H116.281L111.739 28.9751L110.342 44.6922H104.752L106.63 22.4775H114.709L118.071 33.8483L121.478 22.4775H129.557L131.435 44.6922Z" fill="#193732"/>
<path d="M144.709 22.4775C146.106 22.4775 147.373 22.8288 148.465 23.4873C149.556 24.1458 150.386 25.0678 150.91 26.1653C151.478 27.2629 151.74 28.5361 151.74 29.897C151.74 32.0483 151.085 33.7605 149.818 35.1214C148.552 36.4824 146.849 37.141 144.665 37.141H140.779V44.6483H135.232V22.4775H144.709ZM143.748 32.3995C145.582 32.3995 146.499 31.5214 146.499 29.8092C146.499 28.0971 145.582 27.219 143.748 27.219H140.822V32.3995H143.748Z" fill="#193732"/>
<path d="M166.545 44.5166C165.497 44.8239 164.362 44.9995 163.095 44.9995C161.829 44.9995 160.694 44.8239 159.645 44.5166C158.597 44.2092 157.68 43.7263 156.894 43.0678C156.064 42.4092 155.453 41.5312 155.016 40.4775C154.58 39.38 154.361 38.1068 154.361 36.658V22.4775H159.907V35.8678C159.907 38.5897 160.999 39.9507 163.139 39.9507C165.279 39.9507 166.371 38.5897 166.371 35.8678V22.4775H171.917V36.658C171.917 38.1068 171.698 39.38 171.262 40.4775C170.825 41.5751 170.17 42.4531 169.384 43.0678C168.467 43.7263 167.55 44.2092 166.545 44.5166Z" fill="#193732"/>
<path d="M183.578 44.9992C182.005 44.9992 180.564 44.7358 179.298 44.2529C178.031 43.7261 176.94 42.9797 176.066 41.9261C175.193 40.8724 174.669 39.6431 174.494 38.1944L180.259 36.8334C180.346 38.0187 180.695 38.8968 181.35 39.4675C182.005 40.0822 182.835 40.3456 183.84 40.3456C184.538 40.3456 185.106 40.17 185.543 39.8187C185.936 39.4675 186.154 38.9846 186.154 38.37C186.154 37.887 185.936 37.448 185.499 37.0529C185.062 36.6578 184.669 36.3944 184.233 36.2187C183.84 36.0431 183.097 35.7797 182.093 35.4285C182.049 35.3846 182.005 35.3846 181.962 35.3846C181.918 35.3846 181.874 35.3407 181.831 35.3407C181.787 35.3407 181.743 35.2968 181.7 35.2968C181.176 35.1212 180.739 34.9456 180.39 34.8139C180.04 34.6822 179.647 34.5065 179.123 34.287C178.643 34.0675 178.206 33.848 177.9 33.6285C177.595 33.409 177.245 33.1456 176.896 32.7944C176.547 32.4431 176.241 32.1358 176.066 31.7407C175.848 31.3895 175.673 30.9505 175.542 30.4675C175.411 29.9846 175.324 29.4578 175.324 28.887C175.324 26.8236 176.066 25.1992 177.507 24.0139C178.949 22.8285 180.826 22.2139 183.185 22.2139C184.189 22.2139 185.106 22.3017 186.023 22.5212C186.94 22.7407 187.77 23.0919 188.6 23.5309C189.429 24.0139 190.128 24.6285 190.696 25.4626C191.264 26.2968 191.657 27.2626 191.875 28.3602L186.547 29.7212C186.241 27.7895 185.237 26.8236 183.49 26.8236C182.704 26.8236 182.049 26.9992 181.612 27.3066C181.132 27.6139 180.914 28.0968 180.914 28.7553C180.914 28.9748 180.957 29.1505 181.088 29.37C181.219 29.5456 181.35 29.7212 181.569 29.8529C181.743 29.9846 182.005 30.1163 182.355 30.2919C182.704 30.4675 183.01 30.5553 183.272 30.6431C183.534 30.7309 183.927 30.8626 184.364 31.0383C184.626 31.1261 184.844 31.2139 185.019 31.2578C185.455 31.3895 185.805 31.5212 186.067 31.609C186.372 31.6968 186.722 31.8724 187.115 32.0041C187.508 32.1797 187.857 32.3553 188.163 32.487C188.469 32.6626 188.774 32.8383 189.124 33.0578C189.473 33.2773 189.779 33.5407 190.041 33.7602C190.303 33.9797 190.521 34.287 190.783 34.5944C191.045 34.9017 191.22 35.2529 191.395 35.6041C191.526 35.9553 191.657 36.3505 191.744 36.7895C191.831 37.2285 191.875 37.6675 191.875 38.1505C191.875 39.3358 191.657 40.3895 191.22 41.2675C190.783 42.1895 190.172 42.8919 189.386 43.4187C188.6 43.9456 187.726 44.3846 186.766 44.648C185.717 44.8236 184.669 44.9992 183.578 44.9992Z" fill="#193732"/>
</g>
</g>
<defs>
<clipPath id="clip0_29_433">
<rect width="192" height="45" fill="white"/>
</clipPath>
</defs>
</svg>
