<svg width="36" height="36" viewBox="0 0 36 36" fill="none" xmlns="http://www.w3.org/2000/svg">
<g clip-path="url(#clip0_156_390)">
<path d="M18 0C8.07476 0 0 8.07476 0 18C0 27.9252 8.07476 36 18 36C27.9252 36 36 27.9252 36 18C36 8.07476 27.9252 0 18 0ZM18 34.3125C9.00527 34.3125 1.6875 26.9947 1.6875 18C1.6875 9.00527 9.00527 1.6875 18 1.6875C26.9947 1.6875 34.3125 9.00527 34.3125 18C34.3125 26.9947 26.9947 34.3125 18 34.3125ZM26.4594 10.582H9.54049C8.40888 10.582 7.48821 11.5027 7.48821 12.6343V23.3658C7.48821 24.4974 8.40881 25.418 9.54049 25.418H26.4594C27.591 25.418 28.5117 24.4974 28.5117 23.3658V12.6343C28.5117 11.5027 27.591 10.582 26.4594 10.582ZM25.1876 12.2695L18 17.9773L10.8124 12.2695H25.1876ZM26.4594 23.7305H9.54049C9.3394 23.7305 9.17571 23.5669 9.17571 23.3657V13.1247L17.4753 19.7154C17.6289 19.8374 17.8144 19.8984 17.9999 19.8984C18.1854 19.8984 18.371 19.8375 18.5246 19.7154L26.8242 13.1247V23.3657C26.8242 23.5669 26.6605 23.7305 26.4594 23.7305Z" fill="#1A3934"/>
</g>
<defs>
<clipPath id="clip0_156_390">
<rect width="36" height="36" fill="white"/>
</clipPath>
</defs>
</svg>
