<svg width="146" height="146" viewBox="0 0 146 146" fill="none" xmlns="http://www.w3.org/2000/svg">
<path d="M106.067 112.933C84.013 131.195 51.3298 128.121 33.0674 106.067C14.805 84.0127 17.8789 51.3295 39.9333 33.0671C61.9876 14.8046 94.6708 17.8786 112.933 39.9329C131.196 61.9873 128.122 94.6705 106.067 112.933ZM51.2033 46.6771C36.6656 58.7153 34.6393 80.2593 46.6775 94.797C58.7156 109.335 80.2597 111.361 94.7974 99.3229C109.335 87.2847 111.361 65.7407 99.3232 51.203C87.285 36.6652 65.741 34.639 51.2033 46.6771Z" fill="white"/>
<path d="M89.7518 93.231C78.5784 102.483 62.0202 100.926 52.768 89.7525C43.5158 78.5792 45.0731 62.021 56.2464 52.7688C67.4198 43.5165 83.978 45.0739 93.2302 56.2472C102.482 67.4205 100.925 83.9787 89.7518 93.231ZM66.5806 65.2487C62.2998 68.7935 61.7031 75.1375 65.2479 79.4183C68.7928 83.6992 75.1367 84.2959 79.4176 80.751C83.6984 77.2062 84.2951 70.8622 80.7503 66.5814C77.2055 62.3005 70.8615 61.7039 66.5806 65.2487Z" fill="white"/>
</svg>
