<svg width="146" height="146" viewBox="0 0 146 146" fill="none" xmlns="http://www.w3.org/2000/svg">
<g clip-path="url(#clip0_318_616)">
<path d="M35 35C39.9902 35 44.9316 35.9829 49.542 37.8926C54.1523 39.8023 58.3414 42.6013 61.8701 46.1299C65.3987 49.6586 68.1977 53.8477 70.1074 58.458C72.0171 63.0684 73 68.0098 73 73C73 77.9902 72.0171 82.9316 70.1074 87.542C68.1977 92.1523 65.3987 96.3414 61.8701 99.8701C58.3414 103.399 54.1523 106.198 49.542 108.107C44.9316 110.017 39.9902 111 35 111L35 73L35 35Z" fill="#1A3934"/>
<path d="M111 111C106.01 111 101.068 110.017 96.458 108.107C91.8477 106.198 87.6586 103.399 84.13 99.8701C80.6013 96.3414 77.8023 92.1524 75.8926 87.542C73.9829 82.9316 73 77.9902 73 73C73 68.0098 73.9829 63.0684 75.8926 58.458C77.8023 53.8477 80.6013 49.6586 84.1299 46.1299C87.6586 42.6013 91.8477 39.8023 96.458 37.8926C101.068 35.9829 106.01 35 111 35L111 73L111 111Z" fill="#1A3934"/>
</g>
<defs>
<clipPath id="clip0_318_616">
<rect width="146" height="146" fill="white"/>
</clipPath>
</defs>
</svg>
