<svg width="36" height="36" viewBox="0 0 36 36" fill="none" xmlns="http://www.w3.org/2000/svg">
<path d="M30.78 5.1735C27.36 1.8675 22.86 0 18.0675 0C4.3125 0 -4.3245 14.9025 2.544 26.757L0 36L9.5025 33.522C13.6425 35.7585 17.034 35.5605 18.0765 35.6925C34.026 35.6925 41.9655 16.3965 30.7575 5.232L30.78 5.1735Z" fill="#ECEFF1"/>
<path d="M18.1008 32.6266L18.0918 32.6251H18.0678C13.2948 32.6251 10.2453 30.3646 9.94531 30.2341L4.32031 31.6966L5.82781 26.2291L5.46931 25.6666C3.98431 23.3026 3.19531 20.5801 3.19531 17.7766C3.19531 4.58707 19.3128 -2.00843 28.6398 7.31407C37.9443 16.5391 31.4118 32.6266 18.1008 32.6266Z" fill="#4CAF50"/>
<path d="M26.2607 21.4605L26.2472 21.573C25.7957 21.348 23.5967 20.2725 23.1872 20.124C22.2677 19.7835 22.5272 20.07 20.7617 22.092C20.4992 22.3845 20.2382 22.407 19.7927 22.2045C19.3427 21.9795 17.8982 21.507 16.1882 19.977C14.8562 18.7845 13.9622 17.322 13.6982 16.872C13.2587 16.113 14.1782 16.005 15.0152 14.421C15.1652 14.106 15.0887 13.8585 14.9777 13.635C14.8652 13.41 13.9697 11.205 13.5947 10.326C13.2347 9.45001 12.8642 9.56101 12.5867 9.56101C11.7227 9.48601 11.0912 9.49801 10.5347 10.077C8.11371 12.738 8.72421 15.483 10.7957 18.402C14.8667 23.73 17.0357 24.711 21.0017 26.073C22.0727 26.4135 23.0492 26.3655 23.8217 26.2545C24.6827 26.118 26.4722 25.173 26.8457 24.1155C27.2282 23.058 27.2282 22.1805 27.1157 21.978C27.0047 21.7755 26.7107 21.663 26.2607 21.4605Z" fill="#FAFAFA"/>
</svg>